PathFileType	4	(X/Y/Z)	traj.trc
DataRate	CameraRate	NumFrames	NumMarkers	Units	OrigDataRate	OrigDataStartFrame	OrigNumFrames
30.00	30.00	100	1	mm	30.00	1	100
Frame#	Time	wrist		
		X1	Y1	Z1

0	0.0	100.0	800.0	200.0
1	0.10101010101010101	100.0	800.0	200.0
2	0.20202020202020202	100.00149969392442	799.9970006121513	200.0
3	0.30303030303030304	100.00887636416479	799.9822472716704	200.0
4	0.40404040404040403	100.02770529933807	799.9445894013239	200.0
5	0.5050505050505051	100.0632057590995	799.873588481801	200.0
6	0.6060606060606061	100.12024846948927	799.7595030610215	200.0
7	0.7070707070707071	100.20336311827904	799.593273763442	200.0
8	0.8080808080808081	100.3167458503185	799.3665082993631	200.0
9	0.9090909090909091	100.46426676288193	799.0714664742362	200.0
10	1.0101010101010102	100.64947740101482	798.7010451979704	200.0
11	1.1111111111111112	100.87561825288032	798.2487634942395	200.0
12	1.2121212121212122	101.1456262451059	797.7087475097883	200.0
13	1.3131313131313131	101.46214223812986	797.0757155237403	200.0
14	1.4141414141414141	101.82751852154789	796.3449629569043	200.0
15	1.5151515151515151	102.24382630945969	795.5123473810806	200.0
16	1.6161616161616161	102.71286323581545	794.5742735283692	200.0
17	1.7171717171717171	103.23616084976243	793.5276783004753	200.0
18	1.8181818181818181	103.8149921109916	792.3700157780169	200.0
19	1.9191919191919191	104.45037888508408	791.0992422298319	200.0
20	2.0202020202020203	105.14309943885776	789.7138011222845	200.0
21	2.121212121212121	105.89369593571392	788.2126081285722	200.0
22	2.2222222222222223	106.70248193098367	786.5950361380327	200.0
23	2.323232323232323	107.5695498672746	784.8609002654508	200.0
24	2.4242424242424243	108.4947785698173	783.0104428603655	200.0
25	2.525252525252525	109.47784074181195	781.0443185163762	200.0
26	2.6262626262626263	110.51821045977488	778.9635790804504	200.0
27	2.727272727272727	111.61517066888504	776.7696586622299	200.0
28	2.8282828282828283	112.76782067833075	774.4643586433385	200.0
29	2.929292929292929	113.97508365665604	772.0498326866879	200.0
30	3.0303030303030303	115.2357141271074	769.5285717457853	200.0
31	3.131313131313131	116.54830546298022	766.9033890740395	200.0
32	3.2323232323232323	117.91129738296539	764.1774052340693	200.0
33	3.3333333333333335	119.32298344649588	761.3540331070083	200.0
34	3.4343434343434343	120.78151854909329	758.4369629018136	200.0
35	3.5353535353535355	122.28492641771435	755.4301471645714	200.0
36	3.6363636363636362	123.8311071060976	752.3377857878048	200.0
37	3.7373737373737375	125.41784449010984	749.1643110197804	200.0
38	3.8383838383838382	127.0428137630928	745.9143724738145	200.0
39	3.9393939393939394	128.70358893120948	742.592822137581	200.0
40	4.040404040404041	130.3976503087911	739.2046993824179	200.0
41	4.141414141414141	132.12239201368325	735.7552159726334	200.0
42	4.242424242424242	133.87512946259272	732.2497410748146	200.0
43	4.343434343434343	135.6531068664339	728.6937862671322	200.0
44	4.444444444444445	137.45350472567546	725.092990548649	200.0
45	4.545454545454545	139.2734473256869	721.4531053486263	200.0
46	4.646464646464646	141.11001023208496	717.7799795358301	200.0
47	4.747474747474747	142.96022778608045	714.0795444278392	200.0
48	4.848484848484849	144.8211005998245	710.3577988003511	200.0
49	4.94949494949495	146.6896030517553	706.6207938964893	200.0
50	5.05050505050505	148.56269078194484	702.8746184361103	200.0
51	5.151515151515151	150.43730818744498	699.12538362511	200.0
52	5.252525252525253	152.3103959176345	695.3792081647309	200.0
53	5.353535353535354	154.1788983695654	691.6422032608693	200.0
54	5.454545454545454	156.03977118330943	687.9204576333811	200.0
55	5.555555555555555	157.88998873730486	684.2200225253903	200.0
56	5.656565656565657	159.72655164370298	680.546896712594	200.0
57	5.757575757575758	161.54649424371436	676.9070115125712	200.0
58	5.858585858585858	163.34689210295593	673.3062157940881	200.0
59	5.959595959595959	165.12486950679713	669.7502609864057	200.0
60	6.0606060606060606	166.87760695570657	666.2447860885868	200.0
61	6.161616161616162	168.60234866059875	662.7953026788025	200.0
62	6.262626262626262	170.29641003818037	659.4071799236393	200.0
63	6.363636363636363	171.95718520629708	656.0856295874058	200.0
64	6.4646464646464645	173.58215447928	652.8356910414399	200.0
65	6.565656565656566	175.16889186329226	649.6622162734154	200.0
66	6.666666666666667	176.71507255167552	646.569854896649	200.0
67	6.767676767676767	178.2184804202966	643.5630391594068	200.0
68	6.8686868686868685	179.67701552289398	640.6459689542121	200.0
69	6.96969696969697	181.0887015864245	637.8225968271511	200.0
70	7.070707070707071	182.45169350640967	635.0966129871807	200.0
71	7.171717171717171	183.76428484228248	632.4714303154351	200.0
72	7.2727272727272725	185.0249153127338	629.9501693745324	200.0
73	7.373737373737374	186.2321782910591	627.5356434178818	200.0
74	7.474747474747475	187.3848283005048	625.2303433989903	200.0
75	7.575757575757575	188.481788509615	623.03642298077	200.0
76	7.6767676767676765	189.5221582275779	620.9556835448442	200.0
77	7.777777777777778	190.50522039957258	618.9895592008548	200.0
78	7.878787878787879	191.43044910211526	617.1391017957694	200.0
79	7.979797979797979	192.2975170384062	615.4049659231877	200.0
80	8.080808080808081	193.10630303367597	613.7873939326481	200.0
81	8.181818181818182	193.85689953053208	612.2862009389358	200.0
82	8.282828282828282	194.5496200843058	610.9007598313884	200.0
83	8.383838383838384	195.18500685839825	609.6299862832035	200.0
84	8.484848484848484	195.76383811962742	608.4723237607452	200.0
85	8.585858585858587	196.2871357335744	607.4257285328513	200.0
86	8.686868686868687	196.75617265993014	606.4876546801396	200.0
87	8.787878787878787	197.17248044784193	605.6550391043161	200.0
88	8.88888888888889	197.53785673125998	604.9242865374799	200.0
89	8.98989898989899	197.85437272428393	604.2912545514321	200.0
90	9.09090909090909	198.1243807165095	603.751238566981	200.0
91	9.191919191919192	198.35052156837503	603.2989568632499	200.0
92	9.292929292929292	198.53573220650787	602.9285355869843	200.0
93	9.393939393939394	198.6832531190713	602.6334937618574	200.0
94	9.494949494949495	198.79663585111078	602.4067282977785	200.0
95	9.595959595959595	198.87975049990052	602.240499000199	200.0
96	9.696969696969697	198.9367932102903	602.1264135794195	200.0
97	9.797979797979798	198.97229367005176	602.0554126598964	200.0
98	9.8989898989899	198.99112260522506	602.0177547895499	200.0
99	10.0	198.99849927546543	602.0030014490692	200.0
